solid exported
	facet normal 0 -1 0
		outer loop
			vertex -0.26154789328575134 -10.907437324523926 -0.01937735453248024
			vertex -0.8753093481063843 -10.907437324523926 0.4247763156890869
			vertex -0.5602553486824036 -10.907437324523926 0.14077870547771454
		endloop
	endfacet
	facet normal 0 -1 0
		outer loop
			vertex 0.06450030207633972 -10.907437324523926 0.2542095184326172
			vertex -1.3139772415161133 -10.907437324523926 1.125911831855774
			vertex -0.26154789328575134 -10.907437324523926 -0.01937735453248024
		endloop
	endfacet
	facet normal 0 -1 0
		outer loop
			vertex -0.8753093481063843 -10.907437324523926 0.4247763156890869
			vertex -1.1443095207214355 -10.907437324523926 0.7763662934303284
			vertex -1.019248127937317 -10.907437324523926 0.596315860748291
		endloop
	endfacet
	facet normal 0 -1 0
		outer loop
			vertex -0.5602553486824036 -10.907437324523926 0.14077870547771454
			vertex -0.8753093481063843 -10.907437324523926 0.4247763156890869
			vertex -0.7197109460830688 -10.907437324523926 0.2703494131565094
		endloop
	endfacet
	facet normal 0 -1 0
		outer loop
			vertex -0.26154789328575134 -10.907437324523926 -0.01937735453248024
			vertex -1.3139772415161133 -10.907437324523926 1.125911831855774
			vertex -0.8753093481063843 -10.907437324523926 0.4247763156890869
		endloop
	endfacet
	facet normal 0 -1 0
		outer loop
			vertex 0.06450030207633972 -10.907437324523926 0.2542095184326172
			vertex -0.26154789328575134 -10.907437324523926 -0.01937735453248024
			vertex 0.030266178771853447 -10.907437324523926 0.033604491502046585
		endloop
	endfacet
	facet normal 0 -1 0
		outer loop
			vertex -0.2663271427154541 -10.907437324523926 0.9357730150222778
			vertex 0.06450030207633972 -10.907437324523926 0.2542095184326172
			vertex -0.041352637112140656 -10.907437324523926 0.5761897563934326
		endloop
	endfacet
	facet normal 0 -1 0
		outer loop
			vertex -0.26154789328575134 -10.907437324523926 -0.01937735453248024
			vertex -0.5602553486824036 -10.907437324523926 0.14077870547771454
			vertex -0.4049382209777832 -10.907437324523926 0.04256143420934677
		endloop
	endfacet
	facet normal 0 -1 0
		outer loop
			vertex -0.03834960237145424 -10.907437324523926 -0.02397104911506176
			vertex -0.26154789328575134 -10.907437324523926 -0.01937735453248024
			vertex -0.13727447390556335 -10.907437324523926 -0.04193186014890671
		endloop
	endfacet
	facet normal 0 -1 0
		outer loop
			vertex -0.2663271427154541 -10.907437324523926 0.9357730150222778
			vertex -0.041352637112140656 -10.907437324523926 0.5761897563934326
			vertex -0.14126569032669067 -10.907437324523926 0.7557225823402405
		endloop
	endfacet
	facet normal 0 -1 0
		outer loop
			vertex -0.041352637112140656 -10.907437324523926 0.5761897563934326
			vertex 0.06450030207633972 -10.907437324523926 0.2542095184326172
			vertex 0.028401963412761688 -10.907437324523926 0.40617701411247253
		endloop
	endfacet
	facet normal 0 -1 0
		outer loop
			vertex 0.030266178771853447 -10.907437324523926 0.033604491502046585
			vertex -0.03834960237145424 -10.907437324523926 -0.02397104911506176
			vertex 2.1271757688623438e-8 -10.907437324523926 -2.053890568731731e-8
		endloop
	endfacet
	facet normal 0 -1 0
		outer loop
			vertex 0.030266178771853447 -10.907437324523926 0.033604491502046585
			vertex -0.26154789328575134 -10.907437324523926 -0.01937735453248024
			vertex -0.03834960237145424 -10.907437324523926 -0.02397104911506176
		endloop
	endfacet
	facet normal 0 -1 0
		outer loop
			vertex 0.06450030207633972 -10.907437324523926 0.2542095184326172
			vertex 0.030266178771853447 -10.907437324523926 0.033604491502046585
			vertex 0.06513230502605438 -10.907437324523926 0.12790755927562714
		endloop
	endfacet
	facet normal 0 -1 0
		outer loop
			vertex -0.8753093481063843 -10.907437324523926 0.4247763156890869
			vertex -1.3139772415161133 -10.907437324523926 1.125911831855774
			vertex -1.1443095207214355 -10.907437324523926 0.7763662934303284
		endloop
	endfacet
	facet normal 0 -1 0
		outer loop
			vertex -1.3139772415161133 -10.907437324523926 1.125911831855774
			vertex -1.285575270652771 -10.907437324523926 1.5320888757705688
			vertex -1.3507075309753418 -10.907437324523926 1.4041813611984253
		endloop
	endfacet
	facet normal 0 -1 0
		outer loop
			vertex -1.3139772415161133 -10.907437324523926 1.125911831855774
			vertex -0.880636990070343 -10.907437324523926 1.4895274639129639
			vertex -1.285575270652771 -10.907437324523926 1.5320888757705688
		endloop
	endfacet
	facet normal 0 -1 0
		outer loop
			vertex -1.285575270652771 -10.907437324523926 1.5320888757705688
			vertex -0.880636990070343 -10.907437324523926 1.4895274639129639
			vertex -1.1483007669448853 -10.907437324523926 1.5740207433700562
		endloop
	endfacet
	facet normal 0 -1 0
		outer loop
			vertex -1.1483007669448853 -10.907437324523926 1.5740207433700562
			vertex -0.880636990070343 -10.907437324523926 1.4895274639129639
			vertex -1.0240273475646973 -10.907437324523926 1.5514662265777588
		endloop
	endfacet
	facet normal 0 -1 0
		outer loop
			vertex -1.285575270652771 -10.907437324523926 1.5320888757705688
			vertex -1.1483007669448853 -10.907437324523926 1.5740207433700562
			vertex -1.2472256422042847 -10.907437324523926 1.5560599565505981
		endloop
	endfacet
	facet normal 0 -1 0
		outer loop
			vertex -1.3507075309753418 -10.907437324523926 1.4041813611984253
			vertex -1.285575270652771 -10.907437324523926 1.5320888757705688
			vertex -1.3158414363861084 -10.907437324523926 1.4984843730926514
		endloop
	endfacet
	facet normal 0 -1 0
		outer loop
			vertex -1.3139772415161133 -10.907437324523926 1.125911831855774
			vertex -1.3507075309753418 -10.907437324523926 1.4041813611984253
			vertex -1.3500754833221436 -10.907437324523926 1.2778793573379517
		endloop
	endfacet
	facet normal 0 -1 0
		outer loop
			vertex -1.1443095207214355 -10.907437324523926 0.7763662934303284
			vertex -1.3139772415161133 -10.907437324523926 1.125911831855774
			vertex -1.244222640991211 -10.907437324523926 0.9558991193771362
		endloop
	endfacet
	facet normal 0 -1 0
		outer loop
			vertex -0.880636990070343 -10.907437324523926 1.4895274639129639
			vertex -0.5658642649650574 -10.907437324523926 1.2617394924163818
			vertex -0.7253198623657227 -10.907437324523926 1.391310214996338
		endloop
	endfacet
	facet normal 0 -1 0
		outer loop
			vertex -0.880636990070343 -10.907437324523926 1.4895274639129639
			vertex -0.2663271427154541 -10.907437324523926 0.9357730150222778
			vertex -0.5658642649650574 -10.907437324523926 1.2617394924163818
		endloop
	endfacet
	facet normal 0 -1 0
		outer loop
			vertex -0.5658642649650574 -10.907437324523926 1.2617394924163818
			vertex -0.2663271427154541 -10.907437324523926 0.9357730150222778
			vertex -0.41026589274406433 -10.907437324523926 1.107312560081482
		endloop
	endfacet
	facet normal 0 -1 0
		outer loop
			vertex -0.880636990070343 -10.907437324523926 1.4895274639129639
			vertex 0.06450030207633972 -10.907437324523926 0.2542095184326172
			vertex -0.2663271427154541 -10.907437324523926 0.9357730150222778
		endloop
	endfacet
	facet normal 0 -1 0
		outer loop
			vertex -1.3139772415161133 -10.907437324523926 1.125911831855774
			vertex 0.06450030207633972 -10.907437324523926 0.2542095184326172
			vertex -0.880636990070343 -10.907437324523926 1.4895274639129639
		endloop
	endfacet
	facet normal -0.8213136054806085 0 -0.5704769596157616
		outer loop
			vertex -1.019248127937317 -10.907437324523926 0.596315860748291
			vertex -1.1443095207214355 -10.907437324523926 0.7763662934303284
			vertex -1.1443095207214355 9.215953866714699e-8 0.7763662934303284
		endloop
	endfacet
	facet normal -0.8213136054806085 0 -0.5704769596157616
		outer loop
			vertex -1.019248127937317 -10.907437324523926 0.596315860748291
			vertex -1.1443095207214355 9.215953866714699e-8 0.7763662934303284
			vertex -1.019248127937317 9.215953866714699e-8 0.596315860748291
		endloop
	endfacet
	facet normal -0.7660444192838297 0 -0.6427876380921619
		outer loop
			vertex -0.8753093481063843 -10.907437324523926 0.4247763156890869
			vertex -1.019248127937317 -10.907437324523926 0.596315860748291
			vertex -1.019248127937317 9.215953866714699e-8 0.596315860748291
		endloop
	endfacet
	facet normal -0.7660444192838297 0 -0.6427876380921619
		outer loop
			vertex -0.8753093481063843 -10.907437324523926 0.4247763156890869
			vertex -1.019248127937317 9.215953866714699e-8 0.596315860748291
			vertex -0.8753093481063843 9.215953866714699e-8 0.4247763156890869
		endloop
	endfacet
	facet normal -0.7044297919504557 0 -0.7097736739360215
		outer loop
			vertex -0.7197109460830688 -10.907437324523926 0.2703494131565094
			vertex -0.8753093481063843 -10.907437324523926 0.4247763156890869
			vertex -0.8753093481063843 9.215953866714699e-8 0.4247763156890869
		endloop
	endfacet
	facet normal -0.7044297919504557 0 -0.7097736739360215
		outer loop
			vertex -0.7197109460830688 -10.907437324523926 0.2703494131565094
			vertex -0.8753093481063843 9.215953866714699e-8 0.4247763156890869
			vertex -0.7197109460830688 9.215953866714699e-8 0.2703494131565094
		endloop
	endfacet
	facet normal -0.63063083841573 0 -0.7760829502308845
		outer loop
			vertex -0.5602553486824036 -10.907437324523926 0.14077870547771454
			vertex -0.7197109460830688 -10.907437324523926 0.2703494131565094
			vertex -0.7197109460830688 9.215953866714699e-8 0.2703494131565094
		endloop
	endfacet
	facet normal -0.63063083841573 0 -0.7760829502308845
		outer loop
			vertex -0.5602553486824036 -10.907437324523926 0.14077870547771454
			vertex -0.7197109460830688 9.215953866714699e-8 0.2703494131565094
			vertex -0.5602553486824036 9.215953866714699e-8 0.14077870547771454
		endloop
	endfacet
	facet normal -0.534468433609318 0 -0.8451884366667604
		outer loop
			vertex -0.4049382209777832 -10.907437324523926 0.04256143420934677
			vertex -0.5602553486824036 -10.907437324523926 0.14077870547771454
			vertex -0.5602553486824036 9.215953866714699e-8 0.14077870547771454
		endloop
	endfacet
	facet normal -0.534468433609318 0 -0.8451884366667604
		outer loop
			vertex -0.4049382209777832 -10.907437324523926 0.04256143420934677
			vertex -0.5602553486824036 9.215953866714699e-8 0.14077870547771454
			vertex -0.4049382209777832 9.215953866714699e-8 0.04256143420934677
		endloop
	endfacet
	facet normal -0.39654521914938556 0 -0.918015190053937
		outer loop
			vertex -0.26154789328575134 -10.907437324523926 -0.01937735453248024
			vertex -0.4049382209777832 -10.907437324523926 0.04256143420934677
			vertex -0.4049382209777832 9.215953866714699e-8 0.04256143420934677
		endloop
	endfacet
	facet normal -0.39654521914938556 0 -0.918015190053937
		outer loop
			vertex -0.26154789328575134 -10.907437324523926 -0.01937735453248024
			vertex -0.4049382209777832 9.215953866714699e-8 0.04256143420934677
			vertex -0.26154789328575134 9.215953866714699e-8 -0.01937735453248024
		endloop
	endfacet
	facet normal -0.17857379608516558 0 -0.9839265213173867
		outer loop
			vertex -0.13727447390556335 -10.907437324523926 -0.04193186014890671
			vertex -0.26154789328575134 -10.907437324523926 -0.01937735453248024
			vertex -0.26154789328575134 9.215953866714699e-8 -0.01937735453248024
		endloop
	endfacet
	facet normal -0.17857379608516558 0 -0.9839265213173867
		outer loop
			vertex -0.13727447390556335 -10.907437324523926 -0.04193186014890671
			vertex -0.26154789328575134 9.215953866714699e-8 -0.01937735453248024
			vertex -0.13727447390556335 9.215953866714699e-8 -0.04193186014890671
		endloop
	endfacet
	facet normal 0.1786396420425487 0 -0.9839145685936916
		outer loop
			vertex -0.03834960237145424 -10.907437324523926 -0.02397104911506176
			vertex -0.13727447390556335 -10.907437324523926 -0.04193186014890671
			vertex -0.13727447390556335 9.215953866714699e-8 -0.04193186014890671
		endloop
	endfacet
	facet normal 0.1786396420425487 0 -0.9839145685936916
		outer loop
			vertex -0.03834960237145424 -10.907437324523926 -0.02397104911506176
			vertex -0.13727447390556335 9.215953866714699e-8 -0.04193186014890671
			vertex -0.03834960237145424 9.215953866714699e-8 -0.02397104911506176
		endloop
	endfacet
	facet normal 0.5300389101025241 0 -0.8479733213830071
		outer loop
			vertex 2.1271757688623438e-8 -10.907437324523926 -2.053890568731731e-8
			vertex -0.03834960237145424 -10.907437324523926 -0.02397104911506176
			vertex -0.03834960237145424 9.215953866714699e-8 -0.02397104911506176
		endloop
	endfacet
	facet normal 0.5300389101025241 0 -0.8479733213830071
		outer loop
			vertex 2.1271757688623438e-8 -10.907437324523926 -2.053890568731731e-8
			vertex -0.03834960237145424 9.215953866714699e-8 -0.02397104911506176
			vertex 2.1271757688623438e-8 9.215953866714699e-8 -2.053890568731731e-8
		endloop
	endfacet
	facet normal 0.7430511501136501 0 -0.6692346287474834
		outer loop
			vertex 0.030266178771853447 -10.907437324523926 0.033604491502046585
			vertex 2.1271757688623438e-8 -10.907437324523926 -2.053890568731731e-8
			vertex 2.1271757688623438e-8 9.215953866714699e-8 -2.053890568731731e-8
		endloop
	endfacet
	facet normal 0.7430511501136501 0 -0.6692346287474834
		outer loop
			vertex 0.030266178771853447 -10.907437324523926 0.033604491502046585
			vertex 2.1271757688623438e-8 9.215953866714699e-8 -2.053890568731731e-8
			vertex 0.030266178771853447 9.215953866714699e-8 0.033604491502046585
		endloop
	endfacet
	facet normal 0.9379460034605435 0 -0.34678133541526485
		outer loop
			vertex 0.06513230502605438 -10.907437324523926 0.12790755927562714
			vertex 0.030266178771853447 -10.907437324523926 0.033604491502046585
			vertex 0.030266178771853447 9.215953866714699e-8 0.033604491502046585
		endloop
	endfacet
	facet normal 0.9379460034605435 0 -0.34678133541526485
		outer loop
			vertex 0.06513230502605438 -10.907437324523926 0.12790755927562714
			vertex 0.030266178771853447 9.215953866714699e-8 0.033604491502046585
			vertex 0.06513230502605438 9.215953866714699e-8 0.12790755927562714
		endloop
	endfacet
	facet normal 0.9999874807046664 0 0.005003841917428438
		outer loop
			vertex 0.06450030207633972 -10.907437324523926 0.2542095184326172
			vertex 0.06513230502605438 9.215953866714699e-8 0.12790755927562714
			vertex 0.06450030207633972 9.215953866714699e-8 0.2542095184326172
		endloop
	endfacet
	facet normal 0.9999874807046664 0 0.005003841917428438
		outer loop
			vertex 0.06450030207633972 -10.907437324523926 0.2542095184326172
			vertex 0.06513230502605438 -10.907437324523926 0.12790755927562714
			vertex 0.06513230502605438 9.215953866714699e-8 0.12790755927562714
		endloop
	endfacet
	facet normal 0.972927829888823 0 0.23110914700163993
		outer loop
			vertex 0.028401963412761688 -10.907437324523926 0.40617701411247253
			vertex 0.06450030207633972 -10.907437324523926 0.2542095184326172
			vertex 0.06450030207633972 9.215953866714699e-8 0.2542095184326172
		endloop
	endfacet
	facet normal 0.972927829888823 0 0.23110914700163993
		outer loop
			vertex 0.028401963412761688 -10.907437324523926 0.40617701411247253
			vertex 0.06450030207633972 9.215953866714699e-8 0.2542095184326172
			vertex 0.028401963412761688 9.215953866714699e-8 0.40617701411247253
		endloop
	endfacet
	facet normal 0.9251575670731842 0 0.3795832926871608
		outer loop
			vertex -0.041352637112140656 -10.907437324523926 0.5761897563934326
			vertex 0.028401963412761688 -10.907437324523926 0.40617701411247253
			vertex 0.028401963412761688 9.215953866714699e-8 0.40617701411247253
		endloop
	endfacet
	facet normal 0.9251575670731842 0 0.3795832926871608
		outer loop
			vertex -0.041352637112140656 -10.907437324523926 0.5761897563934326
			vertex 0.028401963412761688 9.215953866714699e-8 0.40617701411247253
			vertex -0.041352637112140656 9.215953866714699e-8 0.5761897563934326
		endloop
	endfacet
	facet normal 0.8738004237847262 0 0.4862847102198805
		outer loop
			vertex -0.14126569032669067 -10.907437324523926 0.7557225823402405
			vertex -0.041352637112140656 -10.907437324523926 0.5761897563934326
			vertex -0.041352637112140656 9.215953866714699e-8 0.5761897563934326
		endloop
	endfacet
	facet normal 0.8738004237847262 0 0.4862847102198805
		outer loop
			vertex -0.14126569032669067 -10.907437324523926 0.7557225823402405
			vertex -0.041352637112140656 9.215953866714699e-8 0.5761897563934326
			vertex -0.14126569032669067 9.215953866714699e-8 0.7557225823402405
		endloop
	endfacet
	facet normal -0.9729279795111343 0 -0.23110851711778563
		outer loop
			vertex -1.3139772415161133 -10.907437324523926 1.125911831855774
			vertex -1.3500754833221436 -10.907437324523926 1.2778793573379517
			vertex -1.3500754833221436 9.215953866714699e-8 1.2778793573379517
		endloop
	endfacet
	facet normal -0.9729279795111343 0 -0.23110851711778563
		outer loop
			vertex -1.3139772415161133 -10.907437324523926 1.125911831855774
			vertex -1.3500754833221436 9.215953866714699e-8 1.2778793573379517
			vertex -1.3139772415161133 9.215953866714699e-8 1.125911831855774
		endloop
	endfacet
	facet normal -0.9251575437064179 0 -0.37958334963892676
		outer loop
			vertex -1.244222640991211 -10.907437324523926 0.9558991193771362
			vertex -1.3139772415161133 -10.907437324523926 1.125911831855774
			vertex -1.3139772415161133 9.215953866714699e-8 1.125911831855774
		endloop
	endfacet
	facet normal -0.9251575437064179 0 -0.37958334963892676
		outer loop
			vertex -1.244222640991211 -10.907437324523926 0.9558991193771362
			vertex -1.3139772415161133 9.215953866714699e-8 1.125911831855774
			vertex -1.244222640991211 9.215953866714699e-8 0.9558991193771362
		endloop
	endfacet
	facet normal -0.8738002851078921 0 -0.48628495940689637
		outer loop
			vertex -1.1443095207214355 -10.907437324523926 0.7763662934303284
			vertex -1.244222640991211 -10.907437324523926 0.9558991193771362
			vertex -1.244222640991211 9.215953866714699e-8 0.9558991193771362
		endloop
	endfacet
	facet normal -0.8738002851078921 0 -0.48628495940689637
		outer loop
			vertex -1.1443095207214355 -10.907437324523926 0.7763662934303284
			vertex -1.244222640991211 9.215953866714699e-8 0.9558991193771362
			vertex -1.1443095207214355 9.215953866714699e-8 0.7763662934303284
		endloop
	endfacet
	facet normal -0.999987478942445 0 -0.005004194074319011
		outer loop
			vertex -1.3500754833221436 -10.907437324523926 1.2778793573379517
			vertex -1.3507075309753418 -10.907437324523926 1.4041813611984253
			vertex -1.3507075309753418 9.215953866714699e-8 1.4041813611984253
		endloop
	endfacet
	facet normal -0.999987478942445 0 -0.005004194074319011
		outer loop
			vertex -1.3500754833221436 -10.907437324523926 1.2778793573379517
			vertex -1.3507075309753418 9.215953866714699e-8 1.4041813611984253
			vertex -1.3500754833221436 9.215953866714699e-8 1.2778793573379517
		endloop
	endfacet
	facet normal -0.5300396923649013 0 0.8479728324172425
		outer loop
			vertex -1.285575270652771 -10.907437324523926 1.5320888757705688
			vertex -1.2472256422042847 -10.907437324523926 1.5560599565505981
			vertex -1.2472256422042847 9.215953866714699e-8 1.5560599565505981
		endloop
	endfacet
	facet normal -0.5300396923649013 0 0.8479728324172425
		outer loop
			vertex -1.285575270652771 -10.907437324523926 1.5320888757705688
			vertex -1.2472256422042847 9.215953866714699e-8 1.5560599565505981
			vertex -1.285575270652771 9.215953866714699e-8 1.5320888757705688
		endloop
	endfacet
	facet normal -0.7430509668598166 0 0.6692348322141426
		outer loop
			vertex -1.3158414363861084 -10.907437324523926 1.4984843730926514
			vertex -1.285575270652771 -10.907437324523926 1.5320888757705688
			vertex -1.285575270652771 9.215953866714699e-8 1.5320888757705688
		endloop
	endfacet
	facet normal -0.7430509668598166 0 0.6692348322141426
		outer loop
			vertex -1.3158414363861084 -10.907437324523926 1.4984843730926514
			vertex -1.285575270652771 9.215953866714699e-8 1.5320888757705688
			vertex -1.3158414363861084 9.215953866714699e-8 1.4984843730926514
		endloop
	endfacet
	facet normal -0.9379460390627188 0 0.3467812391213758
		outer loop
			vertex -1.3507075309753418 -10.907437324523926 1.4041813611984253
			vertex -1.3158414363861084 -10.907437324523926 1.4984843730926514
			vertex -1.3158414363861084 9.215953866714699e-8 1.4984843730926514
		endloop
	endfacet
	facet normal -0.9379460390627188 0 0.3467812391213758
		outer loop
			vertex -1.3507075309753418 -10.907437324523926 1.4041813611984253
			vertex -1.3158414363861084 9.215953866714699e-8 1.4984843730926514
			vertex -1.3507075309753418 9.215953866714699e-8 1.4041813611984253
		endloop
	endfacet
	facet normal -0.17863940237750625 0 0.9839146121072742
		outer loop
			vertex -1.2472256422042847 -10.907437324523926 1.5560599565505981
			vertex -1.1483007669448853 -10.907437324523926 1.5740207433700562
			vertex -1.1483007669448853 9.215953866714699e-8 1.5740207433700562
		endloop
	endfacet
	facet normal -0.17863940237750625 0 0.9839146121072742
		outer loop
			vertex -1.2472256422042847 -10.907437324523926 1.5560599565505981
			vertex -1.1483007669448853 9.215953866714699e-8 1.5740207433700562
			vertex -1.2472256422042847 9.215953866714699e-8 1.5560599565505981
		endloop
	endfacet
	facet normal 0.1785738817477393 0 0.9839265057703978
		outer loop
			vertex -1.1483007669448853 -10.907437324523926 1.5740207433700562
			vertex -1.0240273475646973 9.215953866714699e-8 1.5514662265777588
			vertex -1.1483007669448853 9.215953866714699e-8 1.5740207433700562
		endloop
	endfacet
	facet normal 0.1785738817477393 0 0.9839265057703978
		outer loop
			vertex -1.1483007669448853 -10.907437324523926 1.5740207433700562
			vertex -1.0240273475646973 -10.907437324523926 1.5514662265777588
			vertex -1.0240273475646973 9.215953866714699e-8 1.5514662265777588
		endloop
	endfacet
	facet normal 0.3965450089933349 0 0.9180152808327735
		outer loop
			vertex -1.0240273475646973 -10.907437324523926 1.5514662265777588
			vertex -0.880636990070343 9.215953866714699e-8 1.4895274639129639
			vertex -1.0240273475646973 9.215953866714699e-8 1.5514662265777588
		endloop
	endfacet
	facet normal 0.3965450089933349 0 0.9180152808327735
		outer loop
			vertex -1.0240273475646973 -10.907437324523926 1.5514662265777588
			vertex -0.880636990070343 -10.907437324523926 1.4895274639129639
			vertex -0.880636990070343 9.215953866714699e-8 1.4895274639129639
		endloop
	endfacet
	facet normal 0.5344683467227378 0 0.8451884916108734
		outer loop
			vertex -0.880636990070343 -10.907437324523926 1.4895274639129639
			vertex -0.7253198623657227 9.215953866714699e-8 1.391310214996338
			vertex -0.880636990070343 9.215953866714699e-8 1.4895274639129639
		endloop
	endfacet
	facet normal 0.5344683467227378 0 0.8451884916108734
		outer loop
			vertex -0.880636990070343 -10.907437324523926 1.4895274639129639
			vertex -0.7253198623657227 -10.907437324523926 1.391310214996338
			vertex -0.7253198623657227 9.215953866714699e-8 1.391310214996338
		endloop
	endfacet
	facet normal 0.630630882097954 0 0.7760829147355047
		outer loop
			vertex -0.7253198623657227 -10.907437324523926 1.391310214996338
			vertex -0.5658642649650574 9.215953866714699e-8 1.2617394924163818
			vertex -0.7253198623657227 9.215953866714699e-8 1.391310214996338
		endloop
	endfacet
	facet normal 0.630630882097954 0 0.7760829147355047
		outer loop
			vertex -0.7253198623657227 -10.907437324523926 1.391310214996338
			vertex -0.5658642649650574 -10.907437324523926 1.2617394924163818
			vertex -0.5658642649650574 9.215953866714699e-8 1.2617394924163818
		endloop
	endfacet
	facet normal 0.7044299284077029 0 0.7097735385061341
		outer loop
			vertex -0.5658642649650574 -10.907437324523926 1.2617394924163818
			vertex -0.41026589274406433 9.215953866714699e-8 1.107312560081482
			vertex -0.5658642649650574 9.215953866714699e-8 1.2617394924163818
		endloop
	endfacet
	facet normal 0.7044299284077029 0 0.7097735385061341
		outer loop
			vertex -0.5658642649650574 -10.907437324523926 1.2617394924163818
			vertex -0.41026589274406433 -10.907437324523926 1.107312560081482
			vertex -0.41026589274406433 9.215953866714699e-8 1.107312560081482
		endloop
	endfacet
	facet normal 0.7660444848170165 0 0.6427875599927491
		outer loop
			vertex -0.41026589274406433 -10.907437324523926 1.107312560081482
			vertex -0.2663271427154541 9.215953866714699e-8 0.9357730150222778
			vertex -0.41026589274406433 9.215953866714699e-8 1.107312560081482
		endloop
	endfacet
	facet normal 0.7660444848170165 0 0.6427875599927491
		outer loop
			vertex -0.41026589274406433 -10.907437324523926 1.107312560081482
			vertex -0.2663271427154541 -10.907437324523926 0.9357730150222778
			vertex -0.2663271427154541 9.215953866714699e-8 0.9357730150222778
		endloop
	endfacet
	facet normal 0.8213134780886308 0 0.5704771430214856
		outer loop
			vertex -0.2663271427154541 -10.907437324523926 0.9357730150222778
			vertex -0.14126569032669067 9.215953866714699e-8 0.7557225823402405
			vertex -0.2663271427154541 9.215953866714699e-8 0.9357730150222778
		endloop
	endfacet
	facet normal 0.8213134780886308 0 0.5704771430214856
		outer loop
			vertex -0.2663271427154541 -10.907437324523926 0.9357730150222778
			vertex -0.14126569032669067 -10.907437324523926 0.7557225823402405
			vertex -0.14126569032669067 9.215953866714699e-8 0.7557225823402405
		endloop
	endfacet
	facet normal 0 1 0
		outer loop
			vertex -0.26154789328575134 9.215953866714699e-8 -0.01937735453248024
			vertex -0.5602553486824036 9.215953866714699e-8 0.14077870547771454
			vertex -0.8753093481063843 9.215953866714699e-8 0.4247763156890869
		endloop
	endfacet
	facet normal 0 1 0
		outer loop
			vertex 0.06450030207633972 9.215953866714699e-8 0.2542095184326172
			vertex -0.26154789328575134 9.215953866714699e-8 -0.01937735453248024
			vertex -1.3139772415161133 9.215953866714699e-8 1.125911831855774
		endloop
	endfacet
	facet normal 0 1 0
		outer loop
			vertex -0.8753093481063843 9.215953866714699e-8 0.4247763156890869
			vertex -1.019248127937317 9.215953866714699e-8 0.596315860748291
			vertex -1.1443095207214355 9.215953866714699e-8 0.7763662934303284
		endloop
	endfacet
	facet normal 0 1 0
		outer loop
			vertex -0.5602553486824036 9.215953866714699e-8 0.14077870547771454
			vertex -0.7197109460830688 9.215953866714699e-8 0.2703494131565094
			vertex -0.8753093481063843 9.215953866714699e-8 0.4247763156890869
		endloop
	endfacet
	facet normal 0 1 0
		outer loop
			vertex -0.26154789328575134 9.215953866714699e-8 -0.01937735453248024
			vertex -0.8753093481063843 9.215953866714699e-8 0.4247763156890869
			vertex -1.3139772415161133 9.215953866714699e-8 1.125911831855774
		endloop
	endfacet
	facet normal 0 1 0
		outer loop
			vertex 0.06450030207633972 9.215953866714699e-8 0.2542095184326172
			vertex 0.030266178771853447 9.215953866714699e-8 0.033604491502046585
			vertex -0.26154789328575134 9.215953866714699e-8 -0.01937735453248024
		endloop
	endfacet
	facet normal 0 1 0
		outer loop
			vertex -0.2663271427154541 9.215953866714699e-8 0.9357730150222778
			vertex -0.041352637112140656 9.215953866714699e-8 0.5761897563934326
			vertex 0.06450030207633972 9.215953866714699e-8 0.2542095184326172
		endloop
	endfacet
	facet normal 0 1 0
		outer loop
			vertex -0.26154789328575134 9.215953866714699e-8 -0.01937735453248024
			vertex -0.4049382209777832 9.215953866714699e-8 0.04256143420934677
			vertex -0.5602553486824036 9.215953866714699e-8 0.14077870547771454
		endloop
	endfacet
	facet normal 0 1 0
		outer loop
			vertex -0.03834960237145424 9.215953866714699e-8 -0.02397104911506176
			vertex -0.13727447390556335 9.215953866714699e-8 -0.04193186014890671
			vertex -0.26154789328575134 9.215953866714699e-8 -0.01937735453248024
		endloop
	endfacet
	facet normal 0 1 0
		outer loop
			vertex -0.2663271427154541 9.215953866714699e-8 0.9357730150222778
			vertex -0.14126569032669067 9.215953866714699e-8 0.7557225823402405
			vertex -0.041352637112140656 9.215953866714699e-8 0.5761897563934326
		endloop
	endfacet
	facet normal 0 1 0
		outer loop
			vertex -0.041352637112140656 9.215953866714699e-8 0.5761897563934326
			vertex 0.028401963412761688 9.215953866714699e-8 0.40617701411247253
			vertex 0.06450030207633972 9.215953866714699e-8 0.2542095184326172
		endloop
	endfacet
	facet normal 0 1 0
		outer loop
			vertex 0.030266178771853447 9.215953866714699e-8 0.033604491502046585
			vertex 2.1271757688623438e-8 9.215953866714699e-8 -2.053890568731731e-8
			vertex -0.03834960237145424 9.215953866714699e-8 -0.02397104911506176
		endloop
	endfacet
	facet normal 0 1 0
		outer loop
			vertex 0.030266178771853447 9.215953866714699e-8 0.033604491502046585
			vertex -0.03834960237145424 9.215953866714699e-8 -0.02397104911506176
			vertex -0.26154789328575134 9.215953866714699e-8 -0.01937735453248024
		endloop
	endfacet
	facet normal 0 1 0
		outer loop
			vertex 0.06450030207633972 9.215953866714699e-8 0.2542095184326172
			vertex 0.06513230502605438 9.215953866714699e-8 0.12790755927562714
			vertex 0.030266178771853447 9.215953866714699e-8 0.033604491502046585
		endloop
	endfacet
	facet normal 0 1 0
		outer loop
			vertex -0.8753093481063843 9.215953866714699e-8 0.4247763156890869
			vertex -1.1443095207214355 9.215953866714699e-8 0.7763662934303284
			vertex -1.3139772415161133 9.215953866714699e-8 1.125911831855774
		endloop
	endfacet
	facet normal 0 1 0
		outer loop
			vertex -1.3139772415161133 9.215953866714699e-8 1.125911831855774
			vertex -1.3507075309753418 9.215953866714699e-8 1.4041813611984253
			vertex -1.285575270652771 9.215953866714699e-8 1.5320888757705688
		endloop
	endfacet
	facet normal 0 1 0
		outer loop
			vertex -1.3139772415161133 9.215953866714699e-8 1.125911831855774
			vertex -1.285575270652771 9.215953866714699e-8 1.5320888757705688
			vertex -0.880636990070343 9.215953866714699e-8 1.4895274639129639
		endloop
	endfacet
	facet normal 0 1 0
		outer loop
			vertex -1.285575270652771 9.215953866714699e-8 1.5320888757705688
			vertex -1.1483007669448853 9.215953866714699e-8 1.5740207433700562
			vertex -0.880636990070343 9.215953866714699e-8 1.4895274639129639
		endloop
	endfacet
	facet normal 0 1 0
		outer loop
			vertex -1.1483007669448853 9.215953866714699e-8 1.5740207433700562
			vertex -1.0240273475646973 9.215953866714699e-8 1.5514662265777588
			vertex -0.880636990070343 9.215953866714699e-8 1.4895274639129639
		endloop
	endfacet
	facet normal 0 1 0
		outer loop
			vertex -1.285575270652771 9.215953866714699e-8 1.5320888757705688
			vertex -1.2472256422042847 9.215953866714699e-8 1.5560599565505981
			vertex -1.1483007669448853 9.215953866714699e-8 1.5740207433700562
		endloop
	endfacet
	facet normal 0 1 0
		outer loop
			vertex -1.3507075309753418 9.215953866714699e-8 1.4041813611984253
			vertex -1.3158414363861084 9.215953866714699e-8 1.4984843730926514
			vertex -1.285575270652771 9.215953866714699e-8 1.5320888757705688
		endloop
	endfacet
	facet normal 0 1 0
		outer loop
			vertex -1.3139772415161133 9.215953866714699e-8 1.125911831855774
			vertex -1.3500754833221436 9.215953866714699e-8 1.2778793573379517
			vertex -1.3507075309753418 9.215953866714699e-8 1.4041813611984253
		endloop
	endfacet
	facet normal 0 1 0
		outer loop
			vertex -1.1443095207214355 9.215953866714699e-8 0.7763662934303284
			vertex -1.244222640991211 9.215953866714699e-8 0.9558991193771362
			vertex -1.3139772415161133 9.215953866714699e-8 1.125911831855774
		endloop
	endfacet
	facet normal 0 1 0
		outer loop
			vertex -0.880636990070343 9.215953866714699e-8 1.4895274639129639
			vertex -0.7253198623657227 9.215953866714699e-8 1.391310214996338
			vertex -0.5658642649650574 9.215953866714699e-8 1.2617394924163818
		endloop
	endfacet
	facet normal 0 1 0
		outer loop
			vertex -0.880636990070343 9.215953866714699e-8 1.4895274639129639
			vertex -0.5658642649650574 9.215953866714699e-8 1.2617394924163818
			vertex -0.2663271427154541 9.215953866714699e-8 0.9357730150222778
		endloop
	endfacet
	facet normal 0 1 0
		outer loop
			vertex -0.5658642649650574 9.215953866714699e-8 1.2617394924163818
			vertex -0.41026589274406433 9.215953866714699e-8 1.107312560081482
			vertex -0.2663271427154541 9.215953866714699e-8 0.9357730150222778
		endloop
	endfacet
	facet normal 0 1 0
		outer loop
			vertex -0.880636990070343 9.215953866714699e-8 1.4895274639129639
			vertex -0.2663271427154541 9.215953866714699e-8 0.9357730150222778
			vertex 0.06450030207633972 9.215953866714699e-8 0.2542095184326172
		endloop
	endfacet
	facet normal 0 1 0
		outer loop
			vertex -1.3139772415161133 9.215953866714699e-8 1.125911831855774
			vertex -0.880636990070343 9.215953866714699e-8 1.4895274639129639
			vertex 0.06450030207633972 9.215953866714699e-8 0.2542095184326172
		endloop
	endfacet
endsolid exported
